# xmcd
# 
# Track frame offsets:
#     150
#     23617
#     40582
#     59262
#     74600
#     91382
#     110465
#     113045
#     135717
#     152605
# 
# Disc length: 2337
# 
# Revision: 1
# Processed by: cddbd v1.5.2PL0 Copyright (c) Steve Scherf et al.
# Submitted via: fre:ac v1.1beta1pre2
# 
DISCID=7c091f0a
DTITLE=Bow Wow - Asian Volcano
DYEAR=1982
DGENRE=Heavy Metal
TTITLE0=Rock And Roll Tonight
TTITLE1=In My Image
TTITLE2=Get Out Of My Life
TTITLE3=Devil Woman
TTITLE4=Don't Cry Baby
TTITLE5=Getting Back On The Road
TTITLE6=Canon Of Manon
TTITLE7=Take Me Away
TTITLE8=Rollin' Free
TTITLE9=Toutch Me, I'm On Fire
EXTD=YEAR: 1982
EXTT0=
EXTT1=
EXTT2=
EXTT3=
EXTT4=
EXTT5=
EXTT6=
EXTT7=
EXTT8=
EXTT9=
PLAYORDER=
